<svg width="100" height="100" viewBox="0 0 100 100" fill="none" xmlns="http://www.w3.org/2000/svg">
<rect width="100" height="100" rx="20" fill="#A259FF"/>
<path d="M45.5713 47.456C45.5713 46.9427 45.3806 46.5027 44.9993 46.136C44.6326 45.7547 44.0533 45.564 43.2613 45.564C42.4693 45.564 41.8386 45.7987 41.3693 46.268C40.9146 46.7227 40.6873 47.324 40.6873 48.072V50.052H41.0833C41.3326 49.5387 41.736 49.128 42.2933 48.82C42.8506 48.4973 43.4813 48.336 44.1853 48.336C44.816 48.336 45.41 48.4533 45.9673 48.688C46.5246 48.908 47.0086 49.2307 47.4193 49.656C47.83 50.0667 48.1526 50.5727 48.3873 51.174C48.622 51.7753 48.7393 52.4573 48.7393 53.22V53.484C48.7393 54.2613 48.6073 54.98 48.3433 55.64C48.094 56.2853 47.7273 56.8427 47.2433 57.312C46.774 57.7813 46.202 58.148 45.5273 58.412C44.8526 58.676 44.0973 58.808 43.2613 58.808C42.4986 58.808 41.78 58.6833 41.1053 58.434C40.4453 58.1847 39.866 57.84 39.3673 57.4C38.8833 56.9453 38.4946 56.41 38.2013 55.794C37.9226 55.1633 37.7833 54.474 37.7833 53.726V48.116C37.7833 47.3093 37.93 46.576 38.2233 45.916C38.5166 45.256 38.9126 44.6987 39.4113 44.244C39.91 43.7747 40.482 43.4153 41.1273 43.166C41.7873 42.9167 42.484 42.792 43.2173 42.792C43.9506 42.792 44.6326 42.902 45.2633 43.122C45.9086 43.3273 46.466 43.6353 46.9353 44.046C47.4193 44.442 47.7933 44.9333 48.0573 45.52C48.336 46.092 48.4753 46.7373 48.4753 47.456H45.5713ZM43.2613 56.036C44.0093 56.036 44.6253 55.816 45.1093 55.376C45.5933 54.9213 45.8353 54.32 45.8353 53.572C45.8353 52.824 45.5933 52.23 45.1093 51.79C44.6253 51.3353 44.0093 51.108 43.2613 51.108C42.5133 51.108 41.8973 51.3353 41.4133 51.79C40.9293 52.23 40.6873 52.824 40.6873 53.572C40.6873 54.32 40.9293 54.9213 41.4133 55.376C41.8973 55.816 42.5133 56.036 43.2613 56.036ZM52.134 49.546H55.478V46.202H57.986V49.546H61.33V52.054H57.986V55.398H55.478V52.054H52.134V49.546Z" fill="white"/>
</svg>
