<svg width="95" height="95" viewBox="0 0 95 95" fill="none" xmlns="http://www.w3.org/2000/svg">
<rect width="95" height="95" rx="20" fill="#A259FF"/>
<path d="M27.2318 51.484V43.356H26.9438L25.8878 47.196H23.8718V47.004L25.2158 42.3H29.3438V51.484H32.1278V53.5H24.0638V51.484H27.2318ZM36.3567 47.9C36.3567 47.5373 36.49 47.2227 36.7567 46.956C37.0234 46.6893 37.338 46.556 37.7007 46.556C38.0634 46.556 38.378 46.6893 38.6447 46.956C38.9114 47.2227 39.0447 47.5373 39.0447 47.9C39.0447 48.2627 38.9114 48.5773 38.6447 48.844C38.378 49.1107 38.0634 49.244 37.7007 49.244C37.338 49.244 37.0234 49.1107 36.7567 48.844C36.49 48.5773 36.3567 48.2627 36.3567 47.9ZM33.5727 46.652C33.5727 45.2013 33.9354 44.076 34.6607 43.276C35.3967 42.476 36.41 42.076 37.7007 42.076C38.9914 42.076 39.9994 42.476 40.7247 43.276C41.4607 44.076 41.8287 45.2013 41.8287 46.652V49.148C41.8287 50.6413 41.4607 51.7773 40.7247 52.556C39.9994 53.3347 38.9914 53.724 37.7007 53.724C36.41 53.724 35.3967 53.3347 34.6607 52.556C33.9354 51.7773 33.5727 50.6413 33.5727 49.148V46.652ZM37.7007 51.804C38.0847 51.804 38.4047 51.7453 38.6607 51.628C38.9167 51.5 39.1247 51.324 39.2847 51.1C39.4447 50.876 39.5567 50.6093 39.6207 50.3C39.6847 49.9907 39.7167 49.6493 39.7167 49.276V46.524C39.7167 46.172 39.6794 45.8413 39.6047 45.532C39.53 45.2227 39.4127 44.956 39.2527 44.732C39.0927 44.508 38.8847 44.332 38.6287 44.204C38.3727 44.0653 38.0634 43.996 37.7007 43.996C37.338 43.996 37.0287 44.0653 36.7727 44.204C36.5167 44.332 36.3087 44.508 36.1487 44.732C35.9887 44.956 35.8714 45.2227 35.7967 45.532C35.722 45.8413 35.6847 46.172 35.6847 46.524V49.276C35.6847 49.6493 35.7167 49.9907 35.7807 50.3C35.8447 50.6093 35.9567 50.876 36.1167 51.1C36.2767 51.324 36.4847 51.5 36.7407 51.628C36.9967 51.7453 37.3167 51.804 37.7007 51.804ZM51.5136 51.484V53.5H43.6416V51.292C43.6416 50.7053 43.7269 50.204 43.8976 49.788C44.0789 49.372 44.3296 49.02 44.6496 48.732C44.9802 48.444 45.3749 48.2093 45.8336 48.028C46.2922 47.836 46.8096 47.676 47.3856 47.548C47.8122 47.452 48.1589 47.3453 48.4256 47.228C48.7029 47.1 48.9216 46.9613 49.0816 46.812C49.2416 46.652 49.3482 46.4813 49.4016 46.3C49.4656 46.108 49.4976 45.8947 49.4976 45.66C49.4976 45.212 49.3322 44.8387 49.0016 44.54C48.6816 44.2413 48.2336 44.092 47.6576 44.092C47.0496 44.092 46.5642 44.2787 46.2016 44.652C45.8389 45.0147 45.6576 45.5213 45.6576 46.172V46.876H43.5456V45.98C43.5456 45.4573 43.6362 44.9613 43.8176 44.492C44.0096 44.012 44.2762 43.596 44.6176 43.244C44.9696 42.8813 45.3962 42.5987 45.8976 42.396C46.3989 42.1827 46.9642 42.076 47.5936 42.076C48.2656 42.076 48.8522 42.1773 49.3536 42.38C49.8549 42.572 50.2709 42.828 50.6016 43.148C50.9429 43.468 51.1936 43.8413 51.3536 44.268C51.5242 44.684 51.6096 45.116 51.6096 45.564V45.756C51.6096 46.6947 51.3429 47.4733 50.8096 48.092C50.2869 48.7107 49.4282 49.1587 48.2336 49.436C47.7322 49.5533 47.3162 49.676 46.9856 49.804C46.6656 49.9213 46.4149 50.0547 46.2336 50.204C46.0522 50.3533 45.9242 50.5187 45.8496 50.7C45.7856 50.8707 45.7536 51.068 45.7536 51.292V51.484H51.5136ZM53.4544 48.508V42.3H60.9424V44.316H55.5664V47.356H55.8544C56.0038 46.94 56.2811 46.5827 56.6864 46.284C57.1024 45.9747 57.6571 45.82 58.3504 45.82C58.8731 45.82 59.3424 45.9107 59.7584 46.092C60.1744 46.2733 60.5264 46.524 60.8144 46.844C61.1024 47.164 61.3211 47.548 61.4704 47.996C61.6304 48.444 61.7104 48.9347 61.7104 49.468V49.564C61.7104 50.1293 61.6144 50.6627 61.4224 51.164C61.2411 51.6653 60.9691 52.108 60.6064 52.492C60.2544 52.8653 59.8171 53.164 59.2944 53.388C58.7718 53.612 58.1691 53.724 57.4864 53.724C56.8038 53.724 56.2011 53.6333 55.6784 53.452C55.1558 53.26 54.7131 52.9987 54.3504 52.668C53.9984 52.3267 53.7264 51.9267 53.5344 51.468C53.3531 50.9987 53.2624 50.492 53.2624 49.948V49.564H55.3744V49.756C55.3744 50.3213 55.5451 50.7907 55.8864 51.164C56.2384 51.5267 56.7504 51.708 57.4224 51.708C58.0944 51.708 58.6224 51.5267 59.0064 51.164C59.4011 50.8013 59.5984 50.3 59.5984 49.66C59.5984 49.052 59.4544 48.5987 59.1664 48.3C58.8784 47.9907 58.4998 47.836 58.0304 47.836C57.7211 47.836 57.4704 47.9053 57.2784 48.044C57.0864 48.172 56.9638 48.3267 56.9104 48.508H53.4544ZM63.7473 46.988H66.1793V44.556H68.0033V46.988H70.4353V48.812H68.0033V51.244H66.1793V48.812H63.7473V46.988Z" fill="white"/>
</svg>
